<svg height="512" viewBox="0 0 192 192" width="512" xmlns="http://www.w3.org/2000/svg" xmlns:xlink="http://www.w3.org/1999/xlink"><linearGradient id="New_Gradient_Swatch_1" gradientUnits="userSpaceOnUse" x1="28.712" x2="163.288" y1="207.939" y2="73.363"><stop offset="0" stop-color="#34cdfa"/><stop offset="1" stop-color="#e8d9f1"/></linearGradient><rect fill="#ccf2fe" height="40" rx="8" width="144" x="24" y="152"/><path d="m48 176v-24h-16a8 8 0 0 0 -8 8v24a8 8 0 0 0 8 8h128a8 8 0 0 0 8-8h-112a8 8 0 0 1 -8-8z" fill="#99e6fd"/><path d="m144 24h-96a24.027 24.027 0 0 0 -24 24v48a8 8 0 0 0 8 8h128a8 8 0 0 0 8-8v-48a24.027 24.027 0 0 0 -24-24z" fill="#67d9fb"/><path d="m40 96v-48a24.027 24.027 0 0 1 24-24h-16a24.027 24.027 0 0 0 -24 24v48a8 8 0 0 0 8 8h16a8 8 0 0 1 -8-8z" fill="#34cdfa"/><rect fill="#e6f9fe" height="48" rx="16" width="56" x="96" y="48"/><path d="m112 64v-16a16.019 16.019 0 0 0 -16 16v16a16.019 16.019 0 0 0 16 16h24a16.019 16.019 0 0 0 16-16h-24a16.019 16.019 0 0 1 -16-16z" fill="#ccf2fe"/><rect fill="#e6f9fe" height="48" rx="16" width="56" x="40" y="48"/><path d="m56 64v-16a16.019 16.019 0 0 0 -16 16v16a16.019 16.019 0 0 0 16 16h24a16.019 16.019 0 0 0 16-16h-24a16.019 16.019 0 0 1 -16-16z" fill="#ccf2fe"/><path d="m168 88h-144a24.028 24.028 0 0 0 -24 24v64a8.074 8.074 0 0 0 12.437 6.656l10.985-14.656h145.156l10.984 14.656a8.075 8.075 0 0 0 12.438-6.656v-64a24.028 24.028 0 0 0 -24-24z" fill="url(#New_Gradient_Swatch_1)"/></svg>