<?xml version="1.0" encoding="utf-8"?>
<!-- Generator: Adobe Illustrator 19.1.0, SVG Export Plug-In . SVG Version: 6.00 Build 0)  -->
<svg version="1.1" id="Capa_1" xmlns="http://www.w3.org/2000/svg" xmlns:xlink="http://www.w3.org/1999/xlink" x="0px" y="0px"
	 viewBox="-498.8 321.4 322.8 126" style="enable-background:new -498.8 321.4 322.8 126;" xml:space="preserve">
<style type="text/css">
	.st0{display:none;}
	.st1{display:inline;}
	.st2{display:inline;opacity:0.51;clip-path:url(#SVGID_2_);enable-background:new    ;}
	.st3{clip-path:url(#SVGID_7_);}
	.st4{clip-path:url(#SVGID_8_);}
	.st5{clip-path:url(#SVGID_9_);}
	.st6{opacity:0.48;clip-path:url(#SVGID_10_);enable-background:new    ;}
	.st7{opacity:5.000000e-002;clip-path:url(#SVGID_10_);enable-background:new    ;}
	.st8{opacity:0.12;clip-path:url(#SVGID_10_);enable-background:new    ;}
	.st9{display:none;opacity:0.82;enable-background:new    ;}
	.st10{clip-path:url(#SVGID_12_);}
</style>
<g>
	<g>
		<g id="_x34_04-D1_2_" class="st0">
			<defs>
				<rect id="SVGID_1_" x="-2499.8" y="275.9" width="1920" height="937.5"/>
			</defs>
			<use xlink:href="#SVGID_1_"  style="display:inline;overflow:visible;"/>
			<clipPath id="SVGID_2_" class="st1">
				<use xlink:href="#SVGID_1_"  style="overflow:visible;"/>
			</clipPath>
			<g class="st2">
				<g>
					<defs>
						<rect id="SVGID_3_" x="-2548.4" y="127.9" width="2017.3" height="1344.9"/>
					</defs>
					<defs>
						<rect id="SVGID_4_" x="-2548.4" y="127.9" width="2017.3" height="1344.9"/>
					</defs>
					<defs>
						<rect id="SVGID_5_" x="-2548.4" y="127.9" width="2017.3" height="1344.9"/>
					</defs>
					<defs>
						<rect id="SVGID_6_" x="-2548.4" y="127.9" width="2017.3" height="1344.9"/>
					</defs>
					<use xlink:href="#SVGID_3_"  style="overflow:visible;"/>
					<use xlink:href="#SVGID_4_"  style="overflow:visible;"/>
					<use xlink:href="#SVGID_5_"  style="overflow:visible;"/>
					<use xlink:href="#SVGID_6_"  style="overflow:visible;"/>
					<clipPath id="SVGID_7_">
						<use xlink:href="#SVGID_3_"  style="overflow:visible;"/>
					</clipPath>
					<clipPath id="SVGID_8_" class="st3">
						<use xlink:href="#SVGID_4_"  style="overflow:visible;"/>
					</clipPath>
					<clipPath id="SVGID_9_" class="st4">
						<use xlink:href="#SVGID_5_"  style="overflow:visible;"/>
					</clipPath>
					<clipPath id="SVGID_10_" class="st5">
						<use xlink:href="#SVGID_6_"  style="overflow:visible;"/>
					</clipPath>
					<polygon class="st6" points="-402.6,708.4 -1403.4,1812.9 -1506.5,1553.2 -505.7,448.7 					"/>
					<polygon class="st7" points="-288.7,-47.4 -1027.9,768.4 -1104,576.6 -364.8,-239.2 					"/>
					<polygon class="st8" points="-403.2,594.9 -1404,1699.5 -1507.1,1439.8 -506.4,335.2 					"/>
				</g>
			</g>
		</g>
		<g id="_x34_04-D2_2_">
			<g class="st9">
				<g class="st1">
					<defs>
						<rect id="SVGID_11_" x="-494.9" y="275.9" width="1920" height="937.5"/>
					</defs>
					<use xlink:href="#SVGID_11_"  style="overflow:visible;"/>
					<clipPath id="SVGID_12_">
						<use xlink:href="#SVGID_11_"  style="overflow:visible;"/>
					</clipPath>
					<g class="st10">
						
							<image style="overflow:visible;enable-background:new    ;" width="1922" height="1282" xlink:href="22125494.jpg"  transform="matrix(1 0 0 1 -495.4057 142.8868)">
						</image>
					</g>
				</g>
			</g>
		</g>
		<g id="_x34_04-D3_2_" class="st0">
		</g>
		<g id="_x34_04-D4_2_" class="st0">
		</g>
		<g id="CRM-D1_2_">
		</g>
		<g id="CRM-R1_2_" class="st0">
		</g>
		<g id="Mes-D1_2_" class="st0">
		</g>
		<g id="Mes-R1_2_" class="st0">
		</g>
		<g id="Mes-D2_2_" class="st0">
		</g>
		<g id="Mes-R2_2_" class="st0">
		</g>
		<g id="Reg-D1_2_">
		</g>
		<g id="Reg-R1_2_">
		</g>
		<g id="Regla_All_2_" class="st0">
		</g>
		<g id="Colors_2_" class="st0">
		</g>
	</g>
</g>
<g>
	<g>
		<path d="M-329.7,401.8c0.1,0,0.3,0.1,0.3,0.3c0,0.1-0.1,0.3-0.3,0.3c-0.4,0-0.8,0-1.2,0.1c0,0,0,0,0,0.1c0,2.8,0.2,5.1,0.5,5.6
			c0.2,0.4,0.2,0.6,0.1,0.7c-0.1,0.2-0.4,0.3-0.7,0.3l0,0c-0.4,0-0.9-0.2-1.1-0.7c-0.4-0.9-0.6-3.6-0.6-5.8c-0.7,0.1-1.3,0.2-2,0.3
			c-1,0.2-1.9,0.3-2.9,0.5c0,2.3,0.3,4.2,0.5,4.6c0.2,0.4,0.2,0.6,0.1,0.7c-0.1,0.2-0.4,0.3-0.7,0.3l0,0c-0.4,0-0.9-0.2-1.1-0.7
			c-0.1-0.1-0.1-0.3-0.2-0.5l0,0l0,0l0,0c-0.1-0.2-0.1-0.5-0.2-0.8c-0.2-0.6-0.7-1.2-1-1.8c-0.6-0.8-1-1.5-0.8-1.9
			c0.2-0.3,0.6-0.4,1-0.4c0.2,0,0.3,0,0.5,0c0-0.2,0-0.5,0-0.7c0-3.1,0.2-5.6,0.6-6.8c0.2-0.5,1-0.7,1.4-0.6
			c0.3,0.1,0.5,0.4,0.4,0.7c-0.4,1.2-0.6,3.8-0.6,6.7c0,0.2,0,0.3,0,0.5c0.9-0.1,1.8-0.3,2.8-0.5c0.7-0.1,1.4-0.3,2.1-0.4
			c0-3,0.2-5.4,0.6-6.5c0.2-0.5,1-0.7,1.4-0.6c0.3,0.1,0.5,0.4,0.4,0.7c-0.3,1.1-0.5,3.5-0.6,6.2
			C-330.5,401.8-330.1,401.8-329.7,401.8L-329.7,401.8z M-339.3,405.8c-0.1-0.7-0.1-1.4-0.1-2.1c-0.2,0-0.4,0-0.5,0
			c-0.4,0-0.5,0.1-0.5,0.1s0,0.1,0.1,0.4c0.1,0.3,0.4,0.6,0.6,0.9C-339.6,405.3-339.4,405.5-339.3,405.8z"/>
		<path d="M-320.8,405.6c-0.7,0.9-1.4,1-1.7,1c-0.3,0-0.4-0.1-0.6-0.2c-0.1,0.5-0.3,1.1-0.6,1.5c-0.5,0.8-1.3,1.2-2.1,1.2
			s-1.6-0.4-2.1-1.2c-0.5-0.7-0.8-1.5-0.8-2.4c0-1.9,1-3.8,2.9-3.8c0.9,0,1.5,0.4,2,1c0.1,0.1,0.2,0.3,0.3,0.5
			c0.4,0.7,0.5,1.6,0.5,2.2v0.1c0,0,0,0,0,0.1c0,0,0,0,0,0.1l0,0l0,0c0.1,0.2,0.2,0.4,0.5,0.4c0.2,0,0.7-0.1,1.3-0.8
			c0.1-0.1,0.3-0.1,0.4-0.1C-320.7,405.3-320.7,405.5-320.8,405.6z M-323.8,405.4c0-0.1,0.1-0.3,0.3-0.3c0,0,0,0,0.1,0
			c0-0.7-0.2-1.4-0.5-1.9c0-0.1-0.1-0.1-0.1-0.2c-0.3-0.3-0.7-0.5-1.1-0.5c-1.1,0-1.8,1.6-1.8,3.2c0,0.7,0.2,1.3,0.6,1.8
			c0.3,0.4,0.8,0.7,1.2,0.7c1,0,1.7-1.2,1.8-2.4v-0.1l0,0C-323.7,405.7-323.8,405.6-323.8,405.4z"/>
		<path d="M-315.6,399.6L-315.6,399.6C-315.6,399.7-315.6,399.7-315.6,399.6C-315.6,399.7-315.6,399.7-315.6,399.6
			c0,0.1,0,0.1,0,0.1l0,0l0,0l0,0l0,0l0,0l0,0l0,0l0,0l0,0l0,0l0,0l0,0l0,0l0,0l0,0l0,0l0,0l0,0l0,0l0,0l0,0l0,0l0,0l0,0l0,0l0,0
			l0,0l0,0l0,0C-315.6,399.7-315.6,399.7-315.6,399.6c-0.5-0.4-1.7-0.1-3,0.1c-0.2,0-0.4,0.1-0.7,0.1c-0.2,1.2-0.2,2.6-0.2,4.2
			c0,2.5,0.5,4.1,1.2,4.1c0.2,0,0.5-0.1,1-0.7c0.1-0.1,0.2-0.2,0.3-0.4l0.1-0.1c0.4-0.5,0.8-1.1,1.2-1.8c0.1-0.1,0.2-0.2,0.3-0.1
			c0.1,0.1,0.2,0.2,0.1,0.3c-0.1,0.3-0.6,1.2-1.2,1.9c0,0,0,0-0.1,0.1c-0.1,0.2-0.2,0.3-0.3,0.4c-0.7,0.8-1.3,1.2-1.8,1.2
			c-2,0-2.3-3.5-2.3-5.5c0-1.2,0.1-2.3,0.2-3.4c-0.4,0-0.7,0.1-1.1,0.1h-0.1c-0.1,0-0.3,0-0.4,0c-0.9,0-1.8-0.3-2.4-1c0,0,0,0,0-0.1
			l0,0l0,0l0,0l0,0l0,0l0,0l0,0l0,0l0,0l0,0l0,0l0,0l0,0l0,0l0,0l0,0l0,0l0,0l0,0l0,0l0,0l0,0l0,0l0,0l0,0l0,0l0,0c0,0,0,0,0.1,0
			l0,0l0,0l0,0l0,0l0,0l0,0l0,0l0,0c0,0,0,0,0.1,0l0,0c0.6,0.6,1.5,0.8,2.4,0.8c0.4,0,0.9-0.1,1.3-0.2c0.1-0.8,0.2-1.5,0.4-2.1
			c0.3-1.1,0.8-2.5,1.6-2.5c0.3,0,0.6,0.2,0.7,0.5c0.1,0.2,0.1,0.4,0,0.6c-0.5,0.5-0.9,1.6-1.1,3.1c0.7-0.2,1.4-0.3,2-0.4
			c0.8,0,1.4,0.2,1.9,0.6l0.1,0.1l0,0l0,0l0,0l0,0l0,0C-315.6,399.5-315.6,399.5-315.6,399.6L-315.6,399.6z"/>
		<path d="M-309.6,405.4C-309.6,405.4-309.6,405.5-309.6,405.4C-309.6,405.5-309.6,405.5-309.6,405.4
			C-309.6,405.5-309.6,405.5-309.6,405.4C-309.6,405.5-309.6,405.5-309.6,405.4c0,0.1,0,0.1,0,0.1l0,0l0,0c-0.4,0.8-0.9,1.6-1.6,2.3
			c-0.1,0.1-0.2,0.3-0.4,0.4l0,0c-0.6,0.5-1.3,0.9-2.1,0.9c-0.6,0-1.2-0.3-1.7-0.7c-0.4-0.4-0.8-1.1-0.9-2.2v-0.1c0,0,0,0,0-0.1
			s0-0.2,0-0.2c0-1,0.3-1.9,0.7-2.7c0.6-0.9,1.3-1.4,2.3-1.4c0.7,0,1.3,0.4,1.5,1l0,0c0.1,0.1,0.1,0.3,0.1,0.4v0.1
			c0,1.1-0.7,2-2,2.5c-0.3,0.1-0.7,0.2-1,0.3c0.1,0.7,0.3,1.2,0.5,1.4c0.3,0.4,0.7,0.6,1.1,0.6c0.3,0,0.6-0.1,0.9-0.4l0,0
			c0.2-0.1,0.3-0.3,0.5-0.5c0.4-0.5,0.9-1.2,1.4-2.1l0,0l0,0l0,0l0,0l0,0l0,0l0,0l0,0l0,0l0,0l0,0l0,0l0,0l0,0l0,0l0,0l0,0l0,0l0,0
			c0,0,0,0,0.1,0l0,0C-309.6,405.3-309.6,405.3-309.6,405.4L-309.6,405.4L-309.6,405.4L-309.6,405.4z M-314.6,405.6
			c1.1-0.3,2.5-0.9,2.5-2.3c0-0.1,0-0.3-0.1-0.4l0,0c-0.1-0.2-0.3-0.4-0.6-0.4c-0.6,0-1,0.6-1.2,0.9
			C-314.4,404.1-314.6,404.9-314.6,405.6z"/>
		<path d="M-304.5,405.4L-304.5,405.4C-304.5,405.5-304.5,405.5-304.5,405.4C-304.5,405.5-304.5,405.5-304.5,405.4
			C-304.5,405.5-304.5,405.5-304.5,405.4C-304.5,405.5-304.5,405.5-304.5,405.4C-304.5,405.5-304.5,405.5-304.5,405.4
			c0,0.1,0,0.1,0,0.1l0,0c-0.1,0.3-0.6,1.2-1.2,1.9c0,0,0,0,0,0.1c-0.1,0.2-0.2,0.3-0.3,0.4c-0.7,0.8-1.3,1.2-1.8,1.2
			c-2,0-2.3-3.5-2.3-5.5c0-2.4,0.3-4.6,1-6.2c0.6-1.6,1.5-2.5,2.5-2.5c1.1,0,1.8,0.7,1.9,2.1l0,0c0,0,0,0,0,0.1l0,0c0,0,0,0,0,0.1
			c0,0,0,0,0,0.1c0,0,0,0,0,0.1c0,1.9-1,3.6-1.6,4.4c-0.5,0.7-1.1,1.3-1.6,1.6l0,0c-0.2,0.2-0.5,0.3-0.7,0.3c0,0.1,0,0.3,0,0.4
			c0,2.5,0.5,4.1,1.2,4.1c0.2,0,0.5-0.1,1-0.7l0,0c0.1-0.1,0.2-0.2,0.3-0.3l0.1-0.1c0.4-0.5,0.7-1.1,1.2-1.8l0,0l0,0l0,0l0,0l0,0
			l0,0c0,0,0,0,0.1,0l0,0l0,0l0,0l0,0l0,0l0,0l0,0l0,0l0,0l0,0l0,0l0,0l0,0l0,0l0,0l0,0C-304.6,405.3-304.5,405.3-304.5,405.4
			L-304.5,405.4L-304.5,405.4L-304.5,405.4L-304.5,405.4L-304.5,405.4z M-308.7,403.2c0.1,0,0.2-0.1,0.3-0.2l0,0
			c0.4-0.3,1-0.9,1.5-1.6c0.9-1.3,1.4-2.7,1.4-3.9v-0.1c0,0,0,0,0-0.1c0,0,0,0,0-0.1l0,0l0,0c0-0.5-0.2-1.2-0.7-1.2
			c-0.6,0-1.3,1-1.8,2.6C-308.4,399.8-308.7,401.5-308.7,403.2z"/>
		<path d="M-287.9,398.6c0,1.8-0.9,3.6-2.3,4.8c-1.2,1-2.6,1.6-4.1,1.6c-0.1,0-0.3,0-0.4,0c-0.1,1.4-0.1,2.9-0.1,4.5
			c0,0.1,0,0.1,0,0.1c0,0.1-0.1,0.3-0.3,0.3l0,0c-0.4,0-0.7-0.2-0.9-0.5c-1-1.3-1.2-5.1-1.3-7.2c0-1.4,0-2.8,0.1-4
			c-0.3,0-0.6,0.1-0.9,0.1c-0.1,0-0.1,0-0.1,0c-0.1,0.1,0.1,0.6,0.2,0.8c0.2,0.6,0.5,1.2,0.1,1.7c-0.2,0.3-0.5,0.4-1,0.4
			c-0.1,0-0.3-0.1-0.3-0.3c0-0.1,0.1-0.3,0.3-0.3l0,0c0,0,0-0.1,0-0.3c0-0.2-0.1-0.4-0.1-0.7c-0.2-0.7-0.4-1.5,0-2
			c0.2-0.2,0.5-0.4,0.9-0.4c0.3,0,0.6,0,0.9,0c0.1-0.8,0.2-1.5,0.3-1.9s0.7-0.5,1.2-0.4c0.4,0.1,0.6,0.3,0.7,0.5
			c0.2,0.3,0.2,0.8,0,1.1c0,0.1-0.1,0.2-0.2,0.3c-0.1,1.4-0.3,3.7-0.3,6c0,1.7,0,3.2,0.1,4.3c0,0.1,0,0.3,0,0.4
			c0-0.9,0.1-1.8,0.1-2.7l0,0l0,0l0,0l0,0l0,0l0,0l0,0l0,0l0,0l0,0l0,0l0,0l0,0l0,0l0,0l0,0l0,0l0,0l0,0l0,0l0,0l0,0l0,0l0,0l0,0
			l0,0l0,0l0,0l0,0l0,0c0-0.5,0.1-1,0.1-1.4c0.1-1,0.3-2,0.4-2.8c-0.1-0.1-0.1-0.2-0.1-0.2c0.1-0.2,0.2-0.7,0.4-1.2
			c0.4-1.5,0.9-2.5,1.6-3.1c0.5-0.5,1-0.7,1.6-0.7C-289.5,395-287.9,396.2-287.9,398.6z M-294.6,404.5c1,0,1.9-0.4,2.7-1
			c1.2-1.1,1.9-2.9,1.9-4.9c0-0.6-0.1-1.3-0.4-1.7c-0.2-0.3-0.5-0.7-1-0.7c-0.9,0-1.7,1.4-2.3,2.9c-0.3,1.1-0.6,2.5-0.7,4.2
			C-294.6,403.5-294.6,404-294.6,404.5z"/>
		<path d="M-282.1,405.4C-282.1,405.4-282.1,405.5-282.1,405.4C-282.1,405.5-282.1,405.5-282.1,405.4
			C-282.1,405.5-282.1,405.5-282.1,405.4C-282.1,405.5-282.1,405.5-282.1,405.4c0,0.1,0,0.1,0,0.1l0,0l0,0c-0.4,0.8-0.9,1.6-1.6,2.3
			c-0.1,0.1-0.2,0.3-0.4,0.4l0,0c-0.6,0.5-1.3,0.9-2.1,0.9c-0.6,0-1.2-0.3-1.7-0.7c-0.4-0.4-0.8-1.1-0.9-2.2v-0.1c0,0,0,0,0-0.1
			s0-0.2,0-0.2c0-1,0.3-1.9,0.7-2.7c0.6-0.9,1.3-1.4,2.3-1.4c0.7,0,1.3,0.4,1.5,1l0,0c0.1,0.1,0.1,0.3,0.1,0.4v0.1
			c0,1.1-0.7,2-2,2.5c-0.3,0.1-0.7,0.2-1,0.3c0.1,0.7,0.3,1.2,0.5,1.4c0.3,0.4,0.7,0.6,1.1,0.6c0.3,0,0.6-0.1,0.9-0.4l0,0
			c0.2-0.1,0.3-0.3,0.5-0.5c0.4-0.5,0.9-1.2,1.4-2.1l0,0l0,0l0,0l0,0l0,0l0,0l0,0l0,0l0,0l0,0l0,0l0,0l0,0l0,0l0,0l0,0l0,0l0,0l0,0
			c0,0,0,0,0.1,0l0,0C-282.2,405.3-282.1,405.3-282.1,405.4L-282.1,405.4L-282.1,405.4L-282.1,405.4z M-287.1,405.6
			c1.1-0.3,2.5-0.9,2.5-2.3c0-0.1,0-0.3-0.1-0.4l0,0c-0.1-0.2-0.3-0.4-0.6-0.4c-0.6,0-1,0.6-1.2,0.9
			C-286.9,404.1-287.1,404.9-287.1,405.6z"/>
		<path d="M-277,399.6L-277,399.6C-277,399.7-277,399.7-277,399.6C-277,399.7-277,399.7-277,399.6c0,0.1,0,0.1,0,0.1l0,0l0,0l0,0
			l0,0l0,0l0,0l0,0l0,0l0,0l0,0l0,0l0,0l0,0l0,0l0,0l0,0l0,0l0,0l0,0l0,0l0,0l0,0l0,0l0,0l0,0l0,0l0,0l0,0l0,0c0,0,0,0-0.1-0.1
			c-0.4-0.4-1.6-0.1-2.9,0.1c-0.2,0-0.4,0.1-0.7,0.1c-0.2,1.2-0.2,2.6-0.2,4.2c0,2.5,0.5,4.1,1.2,4.1c0.2,0,0.5-0.1,1-0.7
			c0.1-0.1,0.2-0.2,0.3-0.4l0.1-0.1c0.4-0.5,0.8-1.1,1.2-1.8c0.1-0.1,0.2-0.2,0.3-0.1c0.1,0.1,0.2,0.2,0.1,0.3
			c-0.1,0.3-0.6,1.2-1.2,1.9c0,0,0,0-0.1,0.1c-0.1,0.2-0.2,0.3-0.3,0.4c-0.7,0.8-1.3,1.2-1.8,1.2c-2,0-2.3-3.5-2.3-5.5
			c0-1.2,0.1-2.3,0.2-3.4c-0.4,0-0.7,0.1-1.1,0.1h-0.1c-0.1,0-0.3,0-0.4,0c-0.9,0-1.8-0.3-2.4-1c0,0,0,0,0-0.1l0,0l0,0l0,0l0,0l0,0
			l0,0l0,0l0,0l0,0l0,0l0,0l0,0l0,0l0,0l0,0l0,0l0,0l0,0l0,0l0,0l0,0l0,0l0,0l0,0l0,0l0,0l0,0c0,0,0,0,0.1,0l0,0l0,0l0,0l0,0l0,0
			l0,0l0,0l0,0c0,0,0,0,0.1,0l0,0c0.6,0.6,1.5,0.8,2.4,0.8c0.4,0,0.9-0.1,1.3-0.2c0.1-0.8,0.2-1.5,0.4-2.1c0.3-1.1,0.8-2.5,1.6-2.5
			c0.3,0,0.6,0.2,0.7,0.5c0.1,0.2,0.1,0.4,0,0.6c-0.5,0.5-0.9,1.6-1.1,3.1c0.7-0.2,1.4-0.3,2-0.4c0.8,0,1.4,0.2,1.9,0.6l0.1,0.1l0,0
			l0,0l0,0l0,0l0,0C-277,399.5-277,399.5-277,399.6L-277,399.6z"/>
		<path d="M-272.4,405.6c-0.7,1-1.7,1.7-2.9,1.9c0.3,0.3,0.6,0.7,0.8,1.2c0.4,0.9,0.6,2,0.6,3c0,0.4,0,0.8-0.1,1.2
			c0,0.1-0.1,0.3-0.1,0.4c-0.3,0.6-0.7,0.8-1,0.8c-0.6,0-1-0.4-1.4-1.2c-0.3-0.6-0.5-1.4-0.7-2.5c-0.3-2.1-0.4-4.3-0.4-4.8
			c0-2.7,0.3-4.9,1-6.4c0.6-1.5,1.5-2.3,2.5-2.3c1.1,0,1.8,0.7,1.9,1.9l0,0c0,0,0,0,0,0.1v0.1c0,1.1-0.6,2.1-1.6,2.9
			c-0.5,0.4-1,0.7-1.4,0.9c-0.2,0.1-0.5,0.2-0.7,0.2c-0.1,1-0.2,2-0.2,3.1c0,0.2,0,0.5,0.1,1c1.3,0,2.5-0.7,3.3-1.8
			c0.1-0.1,0.3-0.1,0.4-0.1C-272.3,405.3-272.3,405.5-272.4,405.6z M-276.1,407.6c0.1,0.7,0.2,1.6,0.3,2.4c0.1,1,0.3,1.8,0.5,2.3
			c0.3,0.9,0.5,0.9,0.5,0.9c0.1,0,0.2-0.2,0.2-0.3v-0.1c0.1-0.2,0.1-0.5,0.1-0.9C-274.4,410-275.2,407.8-276.1,407.6z M-275.9,402.3
			c0.2,0,0.3-0.1,0.6-0.2l0,0c0.4-0.2,0.8-0.4,1.2-0.8c0.5-0.4,1.3-1.3,1.3-2.5c0,0,0,0,0-0.1l0,0l0,0c0-0.4-0.1-0.9-0.7-0.9
			c-0.7,0-1.3,0.8-1.8,2.2C-275.6,400.6-275.8,401.4-275.9,402.3z"/>
		<path d="M-265.2,405.6c-0.2,0.3-0.5,0.7-0.7,0.9c-0.4,0.4-0.7,0.6-0.9,0.6c-0.1,0-0.1,0-0.2,0c-0.3,0-0.6-0.2-0.9-0.5
			c-0.7-0.8-1.3-2.3-1.3-3.5c-0.1,0.2-0.2,0.4-0.4,0.7c-0.3,0.6-0.6,1.3-0.8,1.7c-0.4,1.2-0.6,2.4-0.6,3.4l0,0c0,0.1,0,0.1-0.1,0.2
			c0,0-0.1,0.1-0.2,0.1l0,0c-0.2,0-0.6-0.1-0.9-0.5c-1-1.4-0.7-5.6-0.4-6.7c0.1-0.3,0.6-0.4,0.9-0.3c0.4,0.1,0.6,0.4,0.5,0.7
			c-0.1,0.5-0.3,1.9-0.3,3.4c0,0.6,0,1.1,0,1.5c0.1-0.6,0.3-1.3,0.5-2c0-0.1,0.1-0.2,0.1-0.3c0.5-1.3,1-2.3,1.5-2.9
			c0.2-0.2,0.5-0.4,0.7-0.4c0.5,0,0.9,0.3,1.1,1c0.1,0.5,0.2,1.2,0.2,1.8c0,0.8,0.1,1.8,0.4,1.9l0,0c0,0,0.2,0,0.5-0.4
			c0.2-0.2,0.5-0.5,0.7-0.8c0.1-0.1,0.2-0.2,0.4-0.1C-265.2,405.3-265.1,405.5-265.2,405.6z"/>
		<path d="M-261.1,405.5c0,0.1-0.2,0.5-0.5,0.9c-0.1,0.2-0.4,0.7-0.7,1.1c-0.7,1-1.4,1.6-2,1.6c-0.2,0-0.6-0.1-0.9-0.5
			c-1-1.4-0.7-5.6-0.4-6.7c0.1-0.3,0.6-0.4,0.9-0.3c0.4,0.1,0.6,0.4,0.5,0.7c-0.3,1-0.4,5,0.2,5.7l0.1,0.1c0.1,0,0.4-0.1,0.9-0.8
			c0,0,0-0.1,0.1-0.1c0,0,0-0.1,0.1-0.1c0.5-0.8,1-1.6,1-1.8c0-0.1,0.2-0.2,0.3-0.2C-261.2,405.2-261.1,405.4-261.1,405.5z
			 M-264.9,400.5c-0.1-0.2-0.1-0.4-0.1-0.5c0-0.6,0.3-1.1,0.7-1.1c0.2,0,0.4,0.1,0.5,0.3c0.1,0.2,0.1,0.4,0.1,0.6
			c0,0.5-0.2,1.1-0.7,1.1C-264.6,400.8-264.8,400.7-264.9,400.5z"/>
		<path d="M-255.1,405.4C-255.1,405.4-255.1,405.5-255.1,405.4C-255.1,405.5-255.1,405.5-255.1,405.4
			C-255.1,405.5-255.1,405.5-255.1,405.4C-255.1,405.5-255.1,405.5-255.1,405.4c0,0.1,0,0.1,0,0.1l0,0l0,0c-0.4,0.8-0.9,1.6-1.6,2.3
			c-0.1,0.1-0.2,0.3-0.4,0.4l0,0c-0.6,0.5-1.3,0.9-2.1,0.9c-0.6,0-1.2-0.3-1.7-0.7c-0.4-0.4-0.8-1.1-0.9-2.2v-0.1c0,0,0,0,0-0.1
			s0-0.2,0-0.2c0-1,0.3-1.9,0.7-2.7c0.6-0.9,1.3-1.4,2.3-1.4c0.7,0,1.3,0.4,1.5,1l0,0c0.1,0.1,0.1,0.3,0.1,0.4v0.1
			c0,1.1-0.7,2-2,2.5c-0.3,0.1-0.7,0.2-1,0.3c0.1,0.7,0.3,1.2,0.5,1.4c0.3,0.4,0.7,0.6,1.1,0.6c0.3,0,0.6-0.1,0.9-0.4l0,0
			c0.2-0.1,0.3-0.3,0.5-0.5c0.4-0.5,0.9-1.2,1.4-2.1l0,0l0,0l0,0l0,0l0,0l0,0l0,0l0,0l0,0l0,0l0,0l0,0l0,0l0,0l0,0l0,0l0,0l0,0l0,0
			c0,0,0,0,0.1,0l0,0C-255.1,405.3-255.1,405.3-255.1,405.4L-255.1,405.4L-255.1,405.4L-255.1,405.4z M-260.1,405.6
			c1.1-0.3,2.5-0.9,2.5-2.3c0-0.1,0-0.3-0.1-0.4l0,0c-0.1-0.2-0.3-0.4-0.6-0.4c-0.6,0-1,0.6-1.2,0.9
			C-259.9,404.1-260.1,404.9-260.1,405.6z"/>
		<path d="M-247.6,405.5L-247.6,405.5L-247.6,405.5L-247.6,405.5c-0.1,0.7-0.5,1.7-1,2.5l0,0c-0.1,0.1-0.2,0.3-0.2,0.4l0,0
			c-0.3,0.5-0.7,0.8-1.1,0.8c-0.3,0-0.6-0.1-0.9-0.3c-0.6-0.7-0.6-2.1-0.5-3.5c0-1,0.1-2.1-0.2-2.4c0,0-0.1-0.1-0.2-0.1
			c-0.4,0-0.8,0.5-1.2,1.3c-0.6,1.3-1,3.1-1,4.6v0.1c0,0.1-0.1,0.3-0.3,0.3l0,0c-0.2,0-0.6-0.1-0.8-0.5c-1-1.4-0.7-5.6-0.4-6.7
			c0.1-0.3,0.6-0.4,0.9-0.3c0.4,0.1,0.6,0.4,0.5,0.7c-0.1,0.5-0.3,1.9-0.3,3.4c0,0.5,0,1,0,1.3c0.1-0.9,0.4-1.8,0.7-2.5
			c0.1-0.2,0.2-0.4,0.3-0.6c0.7-1.4,1.5-2.2,2.4-2.2c0.3,0,0.5,0.1,0.7,0.3c0.6,0.6,0.5,2,0.4,3.5c-0.1,1.1-0.1,2.3,0.2,2.7l0.1,0.1
			c0,0,0.1,0,0.2-0.2l0,0c0.1-0.1,0.2-0.3,0.3-0.4c0.1-0.1,0.2-0.3,0.3-0.5c0.3-0.7,0.5-1.4,0.6-1.7l0,0l0,0l0,0l0,0l0,0l0,0l0,0
			l0,0l0,0l0.1-0.1l0,0l0,0l0,0l0,0l0,0l0,0l0,0l0,0l0,0l0,0l0,0l0,0l0,0l0,0l0,0l0,0l0,0C-247.6,405.3-247.6,405.3-247.6,405.5
			C-247.6,405.4-247.6,405.4-247.6,405.5C-247.6,405.4-247.6,405.4-247.6,405.5z"/>
		<path d="M-238.1,405.4L-238.1,405.4C-238.1,405.5-238.1,405.5-238.1,405.4C-238.1,405.5-238.1,405.5-238.1,405.4
			C-238.1,405.5-238.1,405.5-238.1,405.4C-238.1,405.5-238.1,405.5-238.1,405.4C-238.1,405.5-238.1,405.5-238.1,405.4
			c0,0.1,0,0.1,0,0.1l0,0c-0.1,0.3-0.6,1.2-1.2,1.9c0,0,0,0,0,0.1c-0.1,0.1-0.2,0.3-0.3,0.4c-0.7,0.8-1.3,1.2-1.8,1.2
			c-1.4,0-1.9-1.7-2.1-3.4c0,0.1-0.1,0.3-0.1,0.4l0,0c-0.1,0.2-0.2,0.4-0.2,0.6c-0.6,1.6-1.3,2.3-1.9,2.3c-0.6,0-1.2-0.3-1.6-1
			c-0.4-0.5-0.6-1.3-0.6-2c0-1.1,0.3-2.2,0.7-3c0.5-0.9,1.3-1.4,2.2-1.4c0.6,0,1,0.3,1.3,0.7l0,0c0,0.1,0.1,0.1,0.1,0.2
			c0.1-2,0.4-3.8,1-5.2c0.6-1.6,1.5-2.5,2.5-2.5c1.1,0,1.8,0.7,1.9,2.1l0,0c0,0,0,0,0,0.1l0,0c0,0,0,0,0,0.1c0,0,0,0,0,0.1
			c0,0,0,0,0,0.1c0,1.9-1,3.6-1.6,4.4c-0.5,0.7-1.1,1.3-1.6,1.6l0,0c-0.2,0.2-0.5,0.3-0.7,0.3c0,0.1,0,0.3,0,0.4
			c0,2.5,0.5,4.1,1.2,4.1c0.2,0,0.5-0.1,1-0.7l0,0c0.1-0.1,0.2-0.2,0.3-0.3l0.1-0.1c0.4-0.5,0.7-1.1,1.2-1.8l0,0l0,0l0,0l0,0
			l0.1-0.1l0,0l0,0l0,0l0,0l0,0l0,0l0,0l0,0l0,0l0,0l0,0l0,0l0,0l0,0l0,0l0,0C-238.2,405.3-238.1,405.3-238.1,405.4L-238.1,405.4
			L-238.1,405.4L-238.1,405.4L-238.1,405.4L-238.1,405.4z M-243.8,404v-0.1c0-0.3-0.4-1.4-0.9-1.4c-0.6,0-1,0.6-1.2,1
			c-0.4,0.7-0.5,1.6-0.5,2.6c0,1.3,0.4,2.1,0.7,2.1c0.1,0,0.2-0.1,0.4-0.2c0.4-0.4,0.9-1.4,1.2-2.2l0,0
			C-244,405-243.8,404.2-243.8,404L-243.8,404z M-242.3,403.2c0.1,0,0.2-0.1,0.3-0.2l0,0c0.4-0.3,1-0.9,1.5-1.6
			c0.9-1.3,1.4-2.7,1.4-3.9v-0.1c0,0,0,0,0-0.1c0,0,0,0,0-0.1l0,0l0,0c0-0.5-0.2-1.2-0.7-1.2c-0.6,0-1.3,1-1.8,2.6
			C-242,399.8-242.3,401.5-242.3,403.2z"/>
		<path d="M-233,405.4L-233,405.4C-233,405.5-233,405.5-233,405.4C-233,405.5-233,405.5-233,405.4C-233,405.5-233,405.5-233,405.4
			C-233,405.5-233,405.5-233,405.4C-233,405.5-233,405.5-233,405.4c0,0.1,0,0.1,0,0.1l0,0c-0.1,0.3-0.6,1.2-1.2,1.9c0,0,0,0,0,0.1
			c-0.1,0.2-0.2,0.3-0.3,0.4c-0.7,0.8-1.3,1.2-1.8,1.2c-2,0-2.3-3.5-2.3-5.5c0-2.4,0.3-4.6,1-6.2c0.6-1.6,1.5-2.5,2.5-2.5
			c1.1,0,1.8,0.7,1.9,2.1l0,0c0,0,0,0,0,0.1l0,0c0,0,0,0,0,0.1c0,0,0,0,0,0.1c0,0,0,0,0,0.1c0,1.9-1,3.6-1.6,4.4
			c-0.5,0.7-1.1,1.3-1.6,1.6l0,0c-0.2,0.2-0.5,0.3-0.7,0.3c0,0.1,0,0.3,0,0.4c0,2.5,0.5,4.1,1.2,4.1c0.2,0,0.5-0.1,1-0.7l0,0
			c0.1-0.1,0.2-0.2,0.3-0.3l0.1-0.1c0.4-0.5,0.7-1.1,1.2-1.8l0,0l0,0l0,0l0,0l0,0l0,0c0,0,0,0,0.1,0l0,0l0,0l0,0l0,0l0,0l0,0l0,0
			l0,0l0,0l0,0l0,0l0,0l0,0l0,0l0,0l0,0C-233.1,405.3-233.1,405.3-233,405.4L-233,405.4L-233,405.4L-233,405.4L-233,405.4
			L-233,405.4z M-237.2,403.2c0.1,0,0.2-0.1,0.3-0.2l0,0c0.4-0.3,1-0.9,1.5-1.6c0.9-1.3,1.4-2.7,1.4-3.9v-0.1c0,0,0,0,0-0.1
			c0,0,0,0,0-0.1l0,0l0,0c0-0.5-0.2-1.2-0.7-1.2c-0.6,0-1.3,1-1.8,2.6C-236.9,399.8-237.2,401.5-237.2,403.2z"/>
		<path d="M-225.9,405.7c-0.2,0.1-0.8,0.5-1.6,1.1c0.2,1.9,0.3,3.7,0.3,4.5c0,1.7-0.2,3-0.6,3.9c-0.6,1.2-1.5,1.8-2.8,1.8
			c-0.8,0-1.4-0.3-1.8-0.9c-0.1-0.1-0.2-0.3-0.3-0.5c-0.1-0.3-0.2-0.6-0.2-0.9c0-0.2,0-0.4,0-0.6l0,0c0-1.8,1-3.7,3-5.7
			c0.4-0.4,0.8-0.7,1.1-1.1c-0.1-1-0.3-2-0.4-2.9c-0.1,0.5-0.1,1.1-0.3,1.6c-0.1,0.5-0.2,1-0.4,1.3c-0.5,1.2-1.1,1.9-2,1.9
			c-0.4,0-0.7-0.2-0.9-0.5c-0.6-0.8-0.7-2.3-0.7-3.5c0-1.4,0.2-2.7,0.4-3.2c0.1-0.3,0.6-0.4,0.9-0.3c0.4,0.1,0.6,0.4,0.5,0.7
			c-0.3,1-0.6,4.7,0.1,5.7c0.1,0.2,0.2,0.2,0.3,0.2c0.4,0,0.7-0.4,0.9-1c0.1-0.2,0.2-0.5,0.2-0.7c0.3-1.3,0.4-2.7,0.5-3.5
			c0-0.3,0-0.5,0-0.6c0-0.2,0.1-0.4,0.2-0.5c0.2-0.2,0.6-0.3,0.9-0.3c0.2,0.1,0.4,0.2,0.4,0.4c0.3,1.1,0.5,2.6,0.7,4.2
			c0.7-0.5,1.2-0.8,1.4-0.9c0.1-0.1,0.3,0,0.4,0.1C-225.8,405.4-225.8,405.6-225.9,405.7z M-228.7,410.6c0-0.6-0.1-1.6-0.2-2.8
			c-0.3,0.2-0.6,0.5-0.8,0.8c-1.9,1.9-2.8,3.7-2.8,5.3c0,0.1,0,0.3,0.1,0.6c0.1,0.3,0.2,0.7,0.4,1c0.2,0.4,0.6,0.5,1,0.5
			c1,0,1.6-0.6,2-1.9C-228.7,413.1-228.7,411.6-228.7,410.6z"/>
	</g>
	<g>
		<path d="M-348.5,382.4c-0.6-0.7-2.3-3.1-5.2-7.1c-0.8,1-2.2,3-4.3,6l-0.8,1.1h-2.5c0.6-0.7,1.5-1.8,2.5-3.1
			c1.1-1.4,1.8-2.3,2.2-2.8c0.3-0.4,1-1.3,1.9-2.5c-3.3-4.5-5.3-7.2-6-8.1h3.1l4.6,6.5c1.4-1.8,3-4,4.7-6.5h2.4
			c-1.6,2-3.7,4.6-6,7.9c3.3,4.6,5.4,7.5,6.4,8.6H-348.5L-348.5,382.4z"/>
		<path d="M-343.4,376.4c0.8-0.7,1.9-1,3.3-1c0.6,0,1.1,0.1,1.7,0.2s1,0.4,1.5,0.6v-0.7c-0.1-2.5-1-3.7-2.8-3.7
			c-0.6,0-1,0.1-1.3,0.4c-0.3,0.3-0.5,0.5-0.7,0.8c-0.1,0.2-0.2,0.4-0.3,0.5c-0.2,0.1-0.4,0.1-0.6,0.1c-0.3,0-0.6-0.1-0.8-0.2
			c-0.2-0.1-0.3-0.4-0.3-0.6c0-0.3,0.2-0.6,0.5-0.9c0.3-0.3,0.8-0.6,1.4-0.8c0.6-0.2,1.3-0.3,2.2-0.3c1.6,0,2.8,0.4,3.7,1.3
			s1.4,2.1,1.4,3.6c0,1.1,0,2,0.1,2.6v0.6c0,0.6,0.1,1.1,0.2,1.4c0.1,0.3,0.2,0.6,0.5,0.7c0.2,0.2,0.6,0.2,1,0.2v1.1
			c-0.3,0.2-0.8,0.3-1.4,0.3c-1.2,0-1.9-0.7-2.2-2.1c-0.3,0.6-0.9,1.2-1.5,1.6c-0.7,0.4-1.4,0.6-2.3,0.6c-0.7,0-1.4-0.1-2-0.4
			c-0.6-0.3-1.2-0.7-1.6-1.2s-0.6-1.2-0.6-1.9C-344.6,378-344.2,377.1-343.4,376.4z M-341.5,380.6c0.5,0.4,1.1,0.7,1.9,0.7
			c0.5,0,0.9-0.1,1.3-0.4s0.8-0.6,1-1c0.3-0.4,0.4-0.9,0.4-1.4v-1.1c-0.8-0.6-1.7-0.9-2.7-0.9c-0.9,0-1.5,0.2-1.9,0.6
			c-0.4,0.4-0.7,1-0.7,1.7C-342.3,379.5-342,380.2-341.5,380.6z"/>
		<path d="M-330.8,373.6c0.5-0.9,1.2-1.6,2-2.1c0.9-0.5,1.8-0.8,2.9-0.8c0.8,0,1.5,0.1,2.2,0.4c0.7,0.3,1.2,0.6,1.6,1
			c0.4,0.4,0.7,0.8,0.8,1.3c0,0.1,0,0.1,0,0.2c0,0.3-0.1,0.5-0.3,0.6c-0.2,0.2-0.4,0.3-0.7,0.3c-0.1,0-0.3,0-0.5,0
			c-0.2,0-0.3,0-0.5,0c-0.3-0.8-0.7-1.5-1.2-2s-1.1-0.7-1.7-0.7c-0.9,0-1.7,0.4-2.2,1.2c-0.5,0.8-0.9,1.9-0.9,3.2
			c0,0.9,0.2,1.8,0.5,2.5c0.3,0.7,0.8,1.3,1.4,1.7c0.6,0.4,1.3,0.6,2.1,0.6c0.6,0,1.2-0.2,1.8-0.5c0.6-0.3,1.1-0.7,1.4-1.2
			c0.2,0,0.4,0.1,0.5,0.2s0.2,0.3,0.2,0.5c0,0.4-0.3,0.8-0.7,1.2s-0.9,0.7-1.6,1c-0.7,0.3-1.4,0.4-2.2,0.4c-1.1,0-2-0.3-2.9-0.8
			c-0.9-0.5-1.6-1.3-2.1-2.2s-0.8-1.9-0.8-3.1C-331.5,375.5-331.3,374.5-330.8,373.6z"/>
		<path d="M-318.1,376.4c0.8-0.7,1.9-1,3.3-1c0.6,0,1.1,0.1,1.7,0.2c0.6,0.1,1,0.4,1.5,0.6v-0.7c-0.1-2.5-1-3.7-2.8-3.7
			c-0.6,0-1,0.1-1.3,0.4c-0.3,0.3-0.5,0.5-0.7,0.8c-0.1,0.2-0.2,0.4-0.3,0.5c-0.2,0.1-0.4,0.1-0.6,0.1c-0.3,0-0.6-0.1-0.8-0.2
			c-0.2-0.1-0.3-0.4-0.3-0.6c0-0.3,0.2-0.6,0.5-0.9c0.3-0.3,0.8-0.6,1.4-0.8c0.6-0.2,1.3-0.3,2.2-0.3c1.6,0,2.8,0.4,3.7,1.3
			s1.4,2.1,1.4,3.6c0,1.1,0,2,0.1,2.6v0.6c0,0.6,0.1,1.1,0.2,1.4c0.1,0.3,0.2,0.6,0.5,0.7c0.2,0.2,0.6,0.2,1,0.2v1.1
			c-0.3,0.2-0.8,0.3-1.4,0.3c-1.2,0-1.9-0.7-2.2-2.1c-0.3,0.6-0.9,1.2-1.5,1.6c-0.7,0.4-1.4,0.6-2.3,0.6c-0.7,0-1.4-0.1-2-0.4
			c-0.6-0.3-1.2-0.7-1.6-1.2c-0.4-0.5-0.6-1.2-0.6-1.9C-319.3,378-318.9,377.1-318.1,376.4z M-316.2,380.6c0.5,0.4,1.1,0.7,1.9,0.7
			c0.5,0,0.9-0.1,1.3-0.4c0.4-0.3,0.8-0.6,1-1c0.3-0.4,0.4-0.9,0.4-1.4v-1.1c-0.8-0.6-1.7-0.9-2.7-0.9c-0.9,0-1.5,0.2-1.9,0.6
			s-0.7,1-0.7,1.7C-317,379.5-316.7,380.2-316.2,380.6z"/>
		<path d="M-302.9,380.5c0.1,0.3,0.3,0.5,0.5,0.6c0.2,0.1,0.5,0.1,0.9,0.1v1.1c-0.4,0.2-0.9,0.3-1.4,0.3c-0.8,0-1.4-0.3-1.8-0.9
			c-0.4-0.6-0.6-1.4-0.6-2.4v-11.7c0-0.6-0.1-1-0.1-1.3c-0.1-0.3-0.2-0.5-0.3-0.7c0-0.5,0.7-0.8,2.1-0.8c0.5,0,0.7,0.1,0.7,0.3v0.4
			c0,2.9-0.1,5.7-0.1,8.6v4.9C-303.1,379.7-303,380.2-302.9,380.5z"/>
		<path d="M-296.4,380.5c0.1,0.3,0.3,0.5,0.5,0.6c0.2,0.1,0.5,0.1,0.9,0.1v1.1c-0.4,0.2-0.9,0.3-1.4,0.3c-0.8,0-1.4-0.3-1.8-0.9
			c-0.4-0.6-0.6-1.4-0.6-2.4v-11.7c0-0.6-0.1-1-0.1-1.3c-0.1-0.3-0.2-0.5-0.3-0.7c0-0.5,0.7-0.8,2.1-0.8c0.5,0,0.7,0.1,0.7,0.3v0.4
			c0,2.9-0.1,5.7-0.1,8.6v4.9C-296.6,379.7-296.5,380.2-296.4,380.5z"/>
		<path d="M-292.4,382.4c0-1.6,0.1-4.5,0.1-8.8c0-0.6-0.1-1-0.1-1.3c-0.1-0.3-0.2-0.5-0.3-0.7c0-0.5,0.7-0.8,2.1-0.8
			c0.5,0,0.7,0.1,0.7,0.3v0.4c0,0.6,0,2.2,0,4.7c0,3.2,0,5.3,0,6.2H-292.4L-292.4,382.4z M-292.3,366.2c0.3-0.2,0.7-0.3,1.1-0.3
			c0.4,0,0.7,0.1,1,0.3c0.3,0.2,0.4,0.5,0.4,1c0,0.4-0.1,0.7-0.4,0.9c-0.3,0.2-0.6,0.3-1.1,0.3c-0.4,0-0.8-0.1-1.1-0.3
			c-0.3-0.2-0.4-0.5-0.4-0.9C-292.7,366.7-292.6,366.4-292.3,366.2z"/>
		<path d="M-271.5,366.6c1,0.5,1.8,1.1,2.4,2c0.6,0.9,0.8,1.8,0.8,2.9s-0.3,2.1-0.8,2.9s-1.3,1.5-2.3,1.9c-1,0.5-2.2,0.7-3.5,0.7
			h-3.1c0,2.9,0,4.7,0,5.4h-2.5c0-0.5,0-3.3,0-8.4s0-7.8,0-8.1h5.5C-273.7,365.9-272.5,366.1-271.5,366.6z M-274.9,375.4
			c1.2,0,2.2-0.3,2.9-1c0.7-0.7,1.1-1.6,1.1-2.8c0-1.3-0.4-2.4-1.2-3.1c-0.8-0.7-1.9-1.1-3.3-1.1h-1.8c-0.3,0-0.5,0-0.6,0.1
			c-0.1,0-0.2,0.1-0.3,0.3c0,1.2,0,3.8,0,7.5c0.4,0.1,1,0.2,1.8,0.2h1.4V375.4z"/>
		<path d="M-265.8,381c-1-1.1-1.5-2.6-1.5-4.4c0-1.1,0.2-2.2,0.7-3c0.5-0.9,1.2-1.6,2.1-2.1c0.9-0.5,1.9-0.8,3-0.8
			c1.8,0,3.2,0.5,4.2,1.6s1.5,2.5,1.5,4.4c0,1.1-0.2,2.2-0.7,3c-0.5,0.9-1.2,1.6-2,2.1c-0.9,0.5-1.9,0.8-3,0.8
			C-263.4,382.7-264.8,382.1-265.8,381z M-259,380.3c0.5-0.8,0.8-1.8,0.8-3c0-1.1-0.2-2.1-0.5-2.9c-0.3-0.8-0.8-1.4-1.4-1.9
			c-0.6-0.4-1.2-0.6-1.9-0.6c-0.9,0-1.6,0.4-2.2,1.2c-0.5,0.8-0.8,1.8-0.8,3c0,1.1,0.2,2.1,0.5,2.9c0.3,0.8,0.8,1.4,1.4,1.8
			s1.2,0.6,2,0.6C-260.2,381.5-259.5,381.1-259,380.3z"/>
		<path d="M-251.9,382.1c-0.7-0.3-1.2-0.7-1.6-1.2c-0.3-0.4-0.5-0.8-0.5-1.1c0-0.4,0.1-0.7,0.4-0.9c0.3-0.2,0.6-0.3,1-0.3
			c0.1,0,0.3,0,0.6,0.1c0.3,0.9,0.7,1.5,1.2,2c0.6,0.5,1.2,0.7,1.9,0.7s1.2-0.1,1.6-0.4c0.4-0.3,0.6-0.7,0.6-1.2
			c0-0.6-0.3-1.1-0.8-1.5s-1.3-0.8-2.3-1.1c-1.2-0.4-2.2-0.8-2.8-1.3c-0.7-0.5-1-1.2-1-2.1c0-0.9,0.4-1.7,1.2-2.3s1.9-0.9,3.2-0.9
			c1.1,0,2,0.1,2.7,0.4s1.1,0.6,1.4,1c0.3,0.4,0.4,0.7,0.4,1c0,0.3-0.1,0.6-0.4,0.7c-0.3,0.1-0.6,0.2-1,0.2c-0.1,0-0.3,0-0.5,0
			c-0.5-1.5-1.4-2.2-2.7-2.2c-0.6,0-1.1,0.1-1.5,0.4c-0.4,0.3-0.6,0.7-0.6,1.1c0,0.5,0.1,0.8,0.4,1.1c0.3,0.3,0.6,0.5,0.9,0.6
			c0.3,0.1,0.9,0.3,1.8,0.6c1.3,0.4,2.2,0.9,2.9,1.4c0.6,0.5,1,1.3,1,2.2c0,1-0.4,1.9-1.3,2.5c-0.9,0.6-2,0.9-3.4,0.9
			C-250.3,382.7-251.2,382.5-251.9,382.1z"/>
		<path d="M-241.5,376.4c0.8-0.7,1.9-1,3.3-1c0.6,0,1.1,0.1,1.7,0.2c0.6,0.1,1,0.4,1.5,0.6v-0.7c-0.1-2.5-1-3.7-2.8-3.7
			c-0.6,0-1,0.1-1.3,0.4s-0.5,0.5-0.7,0.8c-0.1,0.2-0.2,0.4-0.3,0.5c-0.2,0.1-0.4,0.1-0.6,0.1c-0.3,0-0.6-0.1-0.8-0.2
			c-0.2-0.1-0.3-0.4-0.3-0.6c0-0.3,0.2-0.6,0.5-0.9c0.3-0.3,0.8-0.6,1.4-0.8c0.6-0.2,1.3-0.3,2.2-0.3c1.6,0,2.8,0.4,3.7,1.3
			s1.4,2.1,1.4,3.6c0,1.1,0,2,0.1,2.6v0.6c0,0.6,0.1,1.1,0.2,1.4c0.1,0.3,0.2,0.6,0.5,0.7c0.2,0.2,0.6,0.2,1,0.2v1.1
			c-0.3,0.2-0.8,0.3-1.4,0.3c-1.2,0-1.9-0.7-2.2-2.1c-0.3,0.6-0.9,1.2-1.5,1.6c-0.7,0.4-1.4,0.6-2.3,0.6c-0.7,0-1.4-0.1-2-0.4
			c-0.6-0.3-1.2-0.7-1.6-1.2c-0.4-0.5-0.6-1.2-0.6-1.9C-242.6,378-242.2,377.1-241.5,376.4z M-239.5,380.6c0.5,0.4,1.1,0.7,1.9,0.7
			c0.5,0,0.9-0.1,1.3-0.4c0.4-0.3,0.8-0.6,1-1c0.3-0.4,0.4-0.9,0.4-1.4v-1.1c-0.8-0.6-1.7-0.9-2.7-0.9c-0.9,0-1.5,0.2-1.9,0.6
			s-0.7,1-0.7,1.7C-240.3,379.5-240,380.2-239.5,380.6z"/>
		<path d="M-228.9,373.4c0.4-0.9,1-1.6,1.8-2.1s1.7-0.7,2.7-0.7c0.5,0,1.1,0.1,1.6,0.3c0.6,0.2,1.1,0.4,1.6,0.7v-4
			c0-0.6,0-1-0.1-1.3c-0.1-0.3-0.2-0.5-0.3-0.7c0-0.5,0.7-0.8,2.1-0.8c0.5,0,0.7,0.1,0.7,0.3v0.4c0,1.4,0,3.6,0,6.6s0,5.3,0,6.8
			c0,0.6,0.1,1.1,0.2,1.5c0.1,0.3,0.3,0.5,0.5,0.6s0.5,0.1,0.8,0.1v1.1c-0.4,0.2-0.9,0.3-1.4,0.3c-0.6,0-1.1-0.2-1.5-0.6
			s-0.6-1-0.7-1.8c-0.4,0.8-0.9,1.4-1.5,1.8c-0.6,0.4-1.4,0.6-2.1,0.6c-0.9,0-1.8-0.3-2.6-0.8s-1.4-1.2-1.8-2.2
			c-0.4-0.9-0.6-2-0.6-3.2C-229.6,375.3-229.3,374.3-228.9,373.4z M-226.2,379.9c0.6,0.9,1.4,1.3,2.4,1.3c0.5,0,0.9-0.2,1.4-0.5
			c0.4-0.3,0.8-0.8,1-1.4c0.2-0.6,0.4-1.3,0.4-2.1V373c-0.3-0.3-0.8-0.6-1.3-0.8c-0.6-0.2-1.1-0.3-1.6-0.3c-0.9,0-1.6,0.4-2.2,1.2
			c-0.5,0.8-0.8,1.9-0.8,3.3C-227.1,377.9-226.8,379-226.2,379.9z"/>
		<path d="M-214.1,376.4c0.8-0.7,1.9-1,3.3-1c0.6,0,1.1,0.1,1.7,0.2c0.6,0.1,1,0.4,1.5,0.6v-0.7c-0.1-2.5-1-3.7-2.8-3.7
			c-0.6,0-1,0.1-1.3,0.4s-0.5,0.5-0.7,0.8c-0.1,0.2-0.2,0.4-0.3,0.5c-0.2,0.1-0.4,0.1-0.6,0.1c-0.3,0-0.6-0.1-0.8-0.2
			c-0.2-0.1-0.3-0.4-0.3-0.6c0-0.3,0.2-0.6,0.5-0.9c0.3-0.3,0.8-0.6,1.4-0.8c0.6-0.2,1.3-0.3,2.2-0.3c1.6,0,2.8,0.4,3.7,1.3
			s1.4,2.1,1.4,3.6c0,1.1,0,2,0.1,2.6v0.6c0,0.6,0.1,1.1,0.2,1.4c0.1,0.3,0.2,0.6,0.5,0.7c0.2,0.2,0.6,0.2,1,0.2v1.1
			c-0.3,0.2-0.8,0.3-1.4,0.3c-1.2,0-1.9-0.7-2.2-2.1c-0.3,0.6-0.9,1.2-1.5,1.6c-0.7,0.4-1.4,0.6-2.3,0.6c-0.7,0-1.4-0.1-2-0.4
			c-0.6-0.3-1.2-0.7-1.6-1.2c-0.4-0.5-0.6-1.2-0.6-1.9C-215.3,378-214.9,377.1-214.1,376.4z M-212.2,380.6c0.5,0.4,1.1,0.7,1.9,0.7
			c0.5,0,0.9-0.1,1.3-0.4c0.4-0.3,0.8-0.6,1-1c0.3-0.4,0.4-0.9,0.4-1.4v-1.1c-0.8-0.6-1.7-0.9-2.7-0.9c-0.9,0-1.5,0.2-1.9,0.6
			s-0.7,1-0.7,1.7C-212.9,379.5-212.7,380.2-212.2,380.6z"/>
	</g>
</g>
<g>
	<g>
		<g>
			<g>
				<path d="M-447,386.3c0.7-0.4,1.6-0.6,2.5-0.6c0.9,0,1.8,0.3,2.5,0.7c0.8,0.4,1.5,1,2,1.8c0.5,0.7,0.8,1.6,0.9,2.4
					c0,0.2-0.2,0.4-0.4,0.4c-0.2,0-0.3-0.1-0.4-0.2l0,0c-0.3-0.7-0.7-1.3-1.2-1.8s-1-0.9-1.6-1.3c-0.6-0.3-1.3-0.6-1.9-0.7
					c-0.7-0.1-1.4-0.1-2.1,0l0,0c-0.2,0-0.4-0.1-0.5-0.4C-447.2,386.6-447.2,386.4-447,386.3z"/>
			</g>
			<g>
				<path d="M-392.4,400c0.2-0.4,0.6-0.8,1-1c0.4-0.2,0.9-0.4,1.4-0.4s1,0.1,1.4,0.3s0.8,0.5,1.1,0.9c0.1,0.1,0,0.2-0.1,0.3
					s-0.2,0-0.2,0l0,0c-0.3-0.2-0.7-0.4-1-0.5c-0.4-0.1-0.7-0.1-1.1-0.1s-0.7,0.1-1.1,0.2c-0.4,0.1-0.7,0.3-1,0.6l0,0
					c-0.1,0.1-0.2,0.1-0.3,0C-392.4,400.2-392.4,400.1-392.4,400z"/>
			</g>
			<line x1="-395.5" y1="411.3" x2="-386.3" y2="405.5"/>
			<line x1="-394.2" y1="412.4" x2="-384.9" y2="406.6"/>
		</g>
	</g>
	<path d="M-415.9,384.3c-2.5-1.1-4.8-2.3-7.3-3.2c-1.7-0.6-5-1.2-6.7,0.2c-0.8,0.7-2,2.7-3.4,2.6c-1.6-0.2-3.1-3.2-4.5-3.6
		c-2-0.5-4-1.1-5.9-2c-0.7-0.3-2,0-2.5,0.5c-4.1,4.7-8.5,2.2-12.9,0.7c-2.8-0.9-5.2-1.3-7.5,1.4c-1.2,1.4-3,2.8-5,2.6
		c-4.3-0.4-4.7,1.8-4.6,5.3c0.6,18.1,18.8,27.1,31.3,18.5c0.9-0.6,2.1-2.1,3-0.5c0.9,1.5-1,2-1.9,2.6c-3.1,2-6.4,3.5-10.2,3.7
		c-1.6,0.1-3.2,0.6-3.4,2.6c-0.3,2.2,1.7,1.8,2.8,2.3c3.6,1.5,6.6,3.8,7.5,7.5c1.1,4.4,4.3,3.1,7.1,3.4c2.8,0.3,4.8,0,5.9-3.4
		c1.2-3.7,4-6.5,8-7.7c1-0.3,2-0.7,2.9-1.2c6.4-3.8,6.4-3.8,1.2-8.8c-3.3-3.2-6.5-6.4-7.7-11c-0.9-3.2-0.7-6.3,1.8-8.8
		c2.4-2.3,5.1-2,8.3-1.4c4.1,0.7,8.5-0.1,11.9-3c2.4-2,4.8-4,8-4.8c2.1-0.5,4.1-1.6,4.5,2c0.2,1.9,2,1.7,2.8,0.9
		c4.2-4.3,5.5,0.2,5.3,2.4c-0.7,5.9,2.4,10.2,4.3,15.2c0.5,1.4,1,2.8,2.1,3.5c4.5,2.8,3,5.7,0.6,9c-5.3,6.9-12.7,9.3-22,6.9
		c-3.7-1-7.4-2.2-10.7-4.1c-1.9-1.1-3.3-0.4-4.5,1.2c-1.4,2,0.3,2.7,1.6,3.5c2,1.2,4.1,2.8,4.5,4.9c1,5.5,4.9,4.9,8.7,4.9
		c4.7-0.1,9.5-0.2,14.2,0.1c3.6,0.2,5.3-0.8,4.8-4.6c-0.1-1,0-2.1,0.1-3.1c0.1-0.9,0.6-1.6,1.7-1.5c1,0.1,0.9,1,0.9,1.6
		c0.3,3.8,0.1,9.8,0.1,9.8s-5-0.1-8-0.1c-3.8,0-7.7,0.4-11.5,0c-7-0.8-13,2.2-19.2,4.4c-5.3,1.8-9.3-1.5-13.7-2.9
		c-5.2-1.7-9.8-2.1-14.9,0.4c-8.8,4.3-17.5,2.6-25.8-2c-0.4-0.2-1.1-0.4-1.1-0.4v-2.2c0,0,0-12.5,0.6-18.9c4.5,4.1,0.9,9.9,3.1,15
		c2.9-2.9,5.8-5.5,9.5-7.1c2.8-1.2,2.3-4.4-0.5-5.5c-17.1-6.7-18.7-23.9-14-36.7c0.8-2.1,2-2.9,4.4-2.1c5.6,2,11.3,3.6,16.9,5.4
		c1.7,0.5,3.5,1.3,5,0c5-4.2,9.8-2.5,14.5,0.4c1.7,1,3,1.3,4.8,0.4c6.3-3.2,10.7,0.8,15.3,3.6C-415.5,383.3-415.7,383.8-415.9,384.3
		z M-394.1,416.8c1.8-0.4,4.2-0.8,6.5-1.7c3.6-1.4,6.1-4.1,7.6-7.6c1.3-3.1-2.5-3.8-3.3-6c-0.5-1.3-1.2-2.5-1.6-3.8
		c-0.8-2.6-2.1-4.7-4.6-6.1c-3.6-1.9-5.8-4.9-7-8.8c-0.3-1.1-0.3-2.5-2-2.7c-3.2-0.4-8.4,5-7.6,8.2c1.8,7.3-0.2,13.9-3.9,19.9
		c-1.6,2.7-1.2,3.2,1.2,4.5C-404.3,415.3-399.6,416.2-394.1,416.8z M-407.6,392.6c-0.1-1.8,0.2-4.1-2.4-4.9
		c-2.3-0.8-4.2,0.2-5.2,2.3c-1,2-1.8,1.8-2.9,0.2c-1.6-2.2-3.8-3.5-6.2-1.8c-2.5,1.7-3.1,4.4-2.1,7.4c1.7,5,5.4,8.4,9.2,11.8
		c2.4,2.1,4,1.3,5.5-0.9C-408.8,402.6-408.1,397.8-407.6,392.6z M-415.1,431c3.5,0.2,4.8-1.7,3.5-5.3c-2.5-6.9-12.9-8.7-17.7-3
		c-1.6,1.9-2.6,4.2-1.9,6.7c0.7,2.5,2.8,1.1,4.4,1.4c0.8,0.1,1.5,0.8,2.1,1.3c2.1,1.5,4.3,1.6,6.1-0.3
		C-417.5,430.5-416.5,430.2-415.1,431z M-452.1,431.4c3.5,0.2,4.8-1.7,3.5-5.3c-2.5-6.9-12.9-8.7-17.7-3c-1.6,1.9-2.6,4.2-1.9,6.7
		c0.7,2.5,2.8,1.1,4.4,1.4c0.8,0.1,1.5,0.8,2.1,1.3c2.1,1.5,4.3,1.6,6.1-0.3C-454.4,430.9-453.4,430.6-452.1,431.4z M-471.8,380.7
		c2.4-0.1,5.2-1,5.3-3.2c0.1-2.5-3.3-2-5.1-2.3c-2.4-0.5-2.3,2.1-2.7,3.5C-474.8,380.6-473.4,380.9-471.8,380.7z M-393.5,385.7
		c0.9,3.4,5.3,3.1,5.3,3.1v-6.2C-392.4,382.8-393.5,385.7-393.5,385.7z"/>
	<path d="M-425.7,335.5c12.9,7.7,26.4,14.3,39.7,21c3.4,1.7,4.8,3.7,4.7,7.6c-0.3,8.7-0.1,17.4-0.1,26.9c-2.3-2.4-2.1-4.6-2.1-6.8
		c0-6.8-0.1-13.6,0-20.5c0.1-2.8-0.9-4.5-3.4-5.8c-11.8-6-23.5-12.2-35.2-18.4c-2.9-1.5-5.5-1.5-8.4-0.1
		c-12.8,6.3-25.6,12.8-38.5,18.8c-3.5,1.6-2.9,4.2-3,6.9c-0.1,1.1,0.9,3.2-1.3,3.1c-1.9,0-1.4-2-1.6-3.3c-0.6-4.3,0.7-6.9,5.1-8.8
		c12.8-5.6,25.2-11.9,37.8-18c1.5-0.7,3.3-1.2,4.3-2.8C-427.1,335.5-426.4,335.5-425.7,335.5z"/>
</g>
</svg>
