<?xml version="1.0" encoding="utf-8"?>
<!-- Generator: Adobe Illustrator 19.1.0, SVG Export Plug-In . SVG Version: 6.00 Build 0)  -->
<svg version="1.1" id="Capa_1" xmlns="http://www.w3.org/2000/svg" xmlns:xlink="http://www.w3.org/1999/xlink" x="0px" y="0px"
	 viewBox="-493.3 324 124.7 122" style="enable-background:new -493.3 324 124.7 122;" xml:space="preserve">
<style type="text/css">
	.st0{display:none;}
	.st1{display:inline;}
	.st2{display:inline;opacity:0.51;clip-path:url(#SVGID_2_);enable-background:new    ;}
	.st3{clip-path:url(#SVGID_7_);}
	.st4{clip-path:url(#SVGID_8_);}
	.st5{clip-path:url(#SVGID_9_);}
	.st6{opacity:0.48;clip-path:url(#SVGID_10_);enable-background:new    ;}
	.st7{opacity:5.000000e-002;clip-path:url(#SVGID_10_);enable-background:new    ;}
	.st8{opacity:0.12;clip-path:url(#SVGID_10_);enable-background:new    ;}
	.st9{display:none;opacity:0.82;enable-background:new    ;}
	.st10{clip-path:url(#SVGID_12_);}
</style>
<g>
	<g>
		<g id="_x34_04-D1_2_" class="st0">
			<defs>
				<rect id="SVGID_1_" x="-2499.8" y="275.9" width="1920" height="937.5"/>
			</defs>
			<use xlink:href="#SVGID_1_"  style="display:inline;overflow:visible;"/>
			<clipPath id="SVGID_2_" class="st1">
				<use xlink:href="#SVGID_1_"  style="overflow:visible;"/>
			</clipPath>
			<g class="st2">
				<g>
					<defs>
						<rect id="SVGID_3_" x="-2548.4" y="127.9" width="2017.3" height="1344.9"/>
					</defs>
					<defs>
						<rect id="SVGID_4_" x="-2548.4" y="127.9" width="2017.3" height="1344.9"/>
					</defs>
					<defs>
						<rect id="SVGID_5_" x="-2548.4" y="127.9" width="2017.3" height="1344.9"/>
					</defs>
					<defs>
						<rect id="SVGID_6_" x="-2548.4" y="127.9" width="2017.3" height="1344.9"/>
					</defs>
					<use xlink:href="#SVGID_3_"  style="overflow:visible;"/>
					<use xlink:href="#SVGID_4_"  style="overflow:visible;"/>
					<use xlink:href="#SVGID_5_"  style="overflow:visible;"/>
					<use xlink:href="#SVGID_6_"  style="overflow:visible;"/>
					<clipPath id="SVGID_7_">
						<use xlink:href="#SVGID_3_"  style="overflow:visible;"/>
					</clipPath>
					<clipPath id="SVGID_8_" class="st3">
						<use xlink:href="#SVGID_4_"  style="overflow:visible;"/>
					</clipPath>
					<clipPath id="SVGID_9_" class="st4">
						<use xlink:href="#SVGID_5_"  style="overflow:visible;"/>
					</clipPath>
					<clipPath id="SVGID_10_" class="st5">
						<use xlink:href="#SVGID_6_"  style="overflow:visible;"/>
					</clipPath>
					<polygon class="st6" points="-402.6,708.4 -1403.4,1812.9 -1506.5,1553.2 -505.7,448.7 					"/>
					<polygon class="st7" points="-288.7,-47.4 -1027.9,768.4 -1104,576.6 -364.8,-239.2 					"/>
					<polygon class="st8" points="-403.2,594.9 -1404,1699.5 -1507.1,1439.8 -506.4,335.2 					"/>
				</g>
			</g>
		</g>
		<g id="_x34_04-D2_2_">
			<g class="st9">
				<g class="st1">
					<defs>
						<rect id="SVGID_11_" x="-494.9" y="275.9" width="1920" height="937.5"/>
					</defs>
					<use xlink:href="#SVGID_11_"  style="overflow:visible;"/>
					<clipPath id="SVGID_12_">
						<use xlink:href="#SVGID_11_"  style="overflow:visible;"/>
					</clipPath>
					<g class="st10">
						
							<image style="overflow:visible;enable-background:new    ;" width="1922" height="1282" xlink:href="B4DB1D15.jpg"  transform="matrix(1 0 0 1 -495.4057 142.8868)">
						</image>
					</g>
				</g>
			</g>
		</g>
		<g id="_x34_04-D3_2_" class="st0">
		</g>
		<g id="_x34_04-D4_2_" class="st0">
		</g>
		<g id="CRM-D1_2_">
		</g>
		<g id="CRM-R1_2_" class="st0">
		</g>
		<g id="Mes-D1_2_" class="st0">
		</g>
		<g id="Mes-R1_2_" class="st0">
		</g>
		<g id="Mes-D2_2_" class="st0">
		</g>
		<g id="Mes-R2_2_" class="st0">
		</g>
		<g id="Reg-D1_2_">
		</g>
		<g id="Reg-R1_2_">
		</g>
		<g id="Regla_All_2_" class="st0">
		</g>
		<g id="Colors_2_" class="st0">
		</g>
	</g>
</g>
<g>
	<g>
		<g>
			<g>
				<path d="M-447,386.3c0.7-0.4,1.6-0.6,2.5-0.6c0.9,0,1.8,0.3,2.5,0.7c0.8,0.4,1.5,1,2,1.8c0.5,0.7,0.8,1.6,0.9,2.4
					c0,0.2-0.2,0.4-0.4,0.4c-0.2,0-0.3-0.1-0.4-0.2l0,0c-0.3-0.7-0.7-1.3-1.2-1.8s-1-0.9-1.6-1.3c-0.6-0.3-1.3-0.6-1.9-0.7
					c-0.7-0.1-1.4-0.1-2.1,0l0,0c-0.2,0-0.4-0.1-0.5-0.4C-447.2,386.6-447.2,386.4-447,386.3z"/>
			</g>
			<g>
				<path d="M-392.4,400c0.2-0.4,0.6-0.8,1-1c0.4-0.2,0.9-0.4,1.4-0.4s1,0.1,1.4,0.3c0.4,0.2,0.8,0.5,1.1,0.9c0.1,0.1,0,0.2-0.1,0.3
					s-0.2,0-0.2,0l0,0c-0.3-0.2-0.7-0.4-1-0.5c-0.4-0.1-0.7-0.1-1.1-0.1s-0.7,0.1-1.1,0.2s-0.7,0.3-1,0.6l0,0
					c-0.1,0.1-0.2,0.1-0.3,0C-392.4,400.2-392.4,400.1-392.4,400z"/>
			</g>
			<line x1="-395.5" y1="411.3" x2="-386.3" y2="405.5"/>
			<line x1="-394.2" y1="412.4" x2="-384.9" y2="406.6"/>
		</g>
	</g>
	<path d="M-415.9,384.3c-2.5-1.1-4.8-2.3-7.3-3.2c-1.7-0.6-5-1.2-6.7,0.2c-0.8,0.7-2,2.7-3.4,2.6c-1.6-0.2-3.1-3.2-4.5-3.6
		c-2-0.5-4-1.1-5.9-2c-0.7-0.3-2,0-2.5,0.5c-4.1,4.7-8.5,2.2-12.9,0.7c-2.8-0.9-5.2-1.3-7.5,1.4c-1.2,1.4-3,2.8-5,2.6
		c-4.3-0.4-4.7,1.8-4.6,5.3c0.6,18.1,18.8,27.1,31.3,18.5c0.9-0.6,2.1-2.1,3-0.5c0.9,1.5-1,2-1.9,2.6c-3.1,2-6.4,3.5-10.2,3.7
		c-1.6,0.1-3.2,0.6-3.4,2.6c-0.3,2.2,1.7,1.8,2.8,2.3c3.6,1.5,6.6,3.8,7.5,7.5c1.1,4.4,4.3,3.1,7.1,3.4c2.8,0.3,4.8,0,5.9-3.4
		c1.2-3.7,4-6.5,8-7.7c1-0.3,2-0.7,2.9-1.2c6.4-3.8,6.4-3.8,1.2-8.8c-3.3-3.2-6.5-6.4-7.7-11c-0.9-3.2-0.7-6.3,1.8-8.8
		c2.4-2.3,5.1-2,8.3-1.4c4.1,0.7,8.5-0.1,11.9-3c2.4-2,4.8-4,8-4.8c2.1-0.5,4.1-1.6,4.5,2c0.2,1.9,2,1.7,2.8,0.9
		c4.2-4.3,5.5,0.2,5.3,2.4c-0.7,5.9,2.4,10.2,4.3,15.2c0.5,1.4,1,2.8,2.1,3.5c4.5,2.8,3,5.7,0.6,9c-5.3,6.9-12.7,9.3-22,6.9
		c-3.7-1-7.4-2.2-10.7-4.1c-1.9-1.1-3.3-0.4-4.5,1.2c-1.4,2,0.3,2.7,1.6,3.5c2,1.2,4.1,2.8,4.5,4.9c1,5.5,4.9,4.9,8.7,4.9
		c4.7-0.1,9.5-0.2,14.2,0.1c3.6,0.2,5.3-0.8,4.8-4.6c-0.1-1,0-2.1,0.1-3.1c0.1-0.9,0.6-1.6,1.7-1.5c1,0.1,0.9,1,0.9,1.6
		c0.3,3.8,0.1,9.8,0.1,9.8s-5-0.1-8-0.1c-3.8,0-7.7,0.4-11.5,0c-7-0.8-13,2.2-19.2,4.4c-5.3,1.8-9.3-1.5-13.7-2.9
		c-5.2-1.7-9.8-2.1-14.9,0.4c-8.8,4.3-17.5,2.6-25.8-2c-0.4-0.2-1.1-0.4-1.1-0.4v-2.2c0,0,0-12.5,0.6-18.9c4.5,4.1,0.9,9.9,3.1,15
		c2.9-2.9,5.8-5.5,9.5-7.1c2.8-1.2,2.3-4.4-0.5-5.5c-17.1-6.7-18.7-23.9-14-36.7c0.8-2.1,2-2.9,4.4-2.1c5.6,2,11.3,3.6,16.9,5.4
		c1.7,0.5,3.5,1.3,5,0c5-4.2,9.8-2.5,14.5,0.4c1.7,1,3,1.3,4.8,0.4c6.3-3.2,10.7,0.8,15.3,3.6C-415.5,383.3-415.7,383.8-415.9,384.3
		z M-394.1,416.8c1.8-0.4,4.2-0.8,6.5-1.7c3.6-1.4,6.1-4.1,7.6-7.6c1.3-3.1-2.5-3.8-3.3-6c-0.5-1.3-1.2-2.5-1.6-3.8
		c-0.8-2.6-2.1-4.7-4.6-6.1c-3.6-1.9-5.8-4.9-7-8.8c-0.3-1.1-0.3-2.5-2-2.7c-3.2-0.4-8.4,5-7.6,8.2c1.8,7.3-0.2,13.9-3.9,19.9
		c-1.6,2.7-1.2,3.2,1.2,4.5C-404.3,415.3-399.6,416.2-394.1,416.8z M-407.6,392.6c-0.1-1.8,0.2-4.1-2.4-4.9
		c-2.3-0.8-4.2,0.2-5.2,2.3c-1,2-1.8,1.8-2.9,0.2c-1.6-2.2-3.8-3.5-6.2-1.8c-2.5,1.7-3.1,4.4-2.1,7.4c1.7,5,5.4,8.4,9.2,11.8
		c2.4,2.1,4,1.3,5.5-0.9C-408.8,402.6-408.1,397.8-407.6,392.6z M-415.1,431c3.5,0.2,4.8-1.7,3.5-5.3c-2.5-6.9-12.9-8.7-17.7-3
		c-1.6,1.9-2.6,4.2-1.9,6.7c0.7,2.5,2.8,1.1,4.4,1.4c0.8,0.1,1.5,0.8,2.1,1.3c2.1,1.5,4.3,1.6,6.1-0.3
		C-417.5,430.5-416.5,430.2-415.1,431z M-452.1,431.4c3.5,0.2,4.8-1.7,3.5-5.3c-2.5-6.9-12.9-8.7-17.7-3c-1.6,1.9-2.6,4.2-1.9,6.7
		c0.7,2.5,2.8,1.1,4.4,1.4c0.8,0.1,1.5,0.8,2.1,1.3c2.1,1.5,4.3,1.6,6.1-0.3C-454.4,430.9-453.4,430.6-452.1,431.4z M-471.8,380.7
		c2.4-0.1,5.2-1,5.3-3.2c0.1-2.5-3.3-2-5.1-2.3c-2.4-0.5-2.3,2.1-2.7,3.5C-474.8,380.6-473.4,380.9-471.8,380.7z M-393.5,385.7
		c0.9,3.4,5.3,3.1,5.3,3.1v-6.2C-392.4,382.8-393.5,385.7-393.5,385.7z"/>
	<path d="M-425.7,335.5c12.9,7.7,26.4,14.3,39.7,21c3.4,1.7,4.8,3.7,4.7,7.6c-0.3,8.7-0.1,17.4-0.1,26.9c-2.3-2.4-2.1-4.6-2.1-6.8
		c0-6.8-0.1-13.6,0-20.5c0.1-2.8-0.9-4.5-3.4-5.8c-11.8-6-23.5-12.2-35.2-18.4c-2.9-1.5-5.5-1.5-8.4-0.1
		c-12.8,6.3-25.6,12.8-38.5,18.8c-3.5,1.6-2.9,4.2-3,6.9c-0.1,1.1,0.9,3.2-1.3,3.1c-1.9,0-1.4-2-1.6-3.3c-0.6-4.3,0.7-6.9,5.1-8.8
		c12.8-5.6,25.2-11.9,37.8-18c1.5-0.7,3.3-1.2,4.3-2.8C-427.1,335.5-426.4,335.5-425.7,335.5z"/>
</g>
</svg>
